<?xml version="1.0" encoding="UTF-8" standalone="no"?>
<!-- Created with Inkscape (http://www.inkscape.org/) -->

<svg
   width="5.291666mm"
   height="5.93504mm"
   viewBox="0 0 5.291666 5.93504"
   version="1.1"
   id="svg12372"
   inkscape:version="1.1.2 (0a00cf5339, 2022-02-04)"
   sodipodi:docname="auto-timer.svg"
   xmlns:inkscape="http://www.inkscape.org/namespaces/inkscape"
   xmlns:sodipodi="http://sodipodi.sourceforge.net/DTD/sodipodi-0.dtd"
   xmlns="http://www.w3.org/2000/svg"
   xmlns:svg="http://www.w3.org/2000/svg">
  <sodipodi:namedview
     id="namedview12374"
     pagecolor="#ffffff"
     bordercolor="#666666"
     borderopacity="1.0"
     inkscape:pageshadow="2"
     inkscape:pageopacity="0.0"
     inkscape:pagecheckerboard="0"
     inkscape:document-units="mm"
     showgrid="false"
     inkscape:zoom="8.8045251"
     inkscape:cx="-6.3035768"
     inkscape:cy="4.6566964"
     inkscape:window-width="1920"
     inkscape:window-height="1043"
     inkscape:window-x="0"
     inkscape:window-y="0"
     inkscape:window-maximized="1"
     inkscape:current-layer="layer1" />
  <defs
     id="defs12369" />
  <g
     inkscape:label="Layer 1"
     inkscape:groupmode="layer"
     id="layer1"
     transform="translate(-82.447352,-123.01996)">
    <path
       id="path11970"
       d="m 84.849788,125.0787 -0.79375,2.23552 h 0.489376 l 0.152446,-0.46302 h 0.820105 l 0.151928,0.46302 h 0.502812 l -0.79375,-2.23552 z m 0.264584,0.51573 0.28422,0.87333 h -0.575159 z m -0.7953,-2.57447 v 0.52917 h 1.5875 v -0.52917 z m 2.476334,0.57206 -0.330729,0.45424 c -0.107527,-0.0649 -0.220475,-0.1233 -0.339514,-0.17467 -0.32191,-0.13891 -0.665972,-0.20826 -1.031978,-0.20826 -0.366006,0 -0.71007,0.0694 -1.031978,0.20826 -0.321911,0.13891 -0.601618,0.32722 -0.839743,0.56534 -0.238125,0.23813 -0.42695,0.51835 -0.565856,0.84026 -0.138906,0.32191 -0.208256,0.66597 -0.208256,1.03198 0,0.36601 0.06935,0.70955 0.208256,1.03146 0.138906,0.32191 0.327731,0.60213 0.565856,0.84026 0.238125,0.23812 0.517832,0.42643 0.839743,0.56534 0.321908,0.13891 0.665972,0.20877 1.031978,0.20877 0.366006,0 0.710068,-0.0699 1.031978,-0.20877 0.321911,-0.13891 0.601618,-0.32722 0.839743,-0.56534 0.238125,-0.23813 0.42695,-0.51835 0.565856,-0.84026 0.138906,-0.32191 0.208256,-0.66545 0.208256,-1.03146 0,-0.36601 -0.06935,-0.71007 -0.208256,-1.03198 -0.138906,-0.32191 -0.327731,-0.60213 -0.565856,-0.84026 -0.02502,-0.025 -0.05106,-0.0489 -0.077,-0.0729 l 0.33538,-0.46044 z m -1.702221,0.60048 c 0.590902,0 1.091613,0.20485 1.501717,0.61495 0.410104,0.41011 0.61495,0.91082 0.61495,1.50172 0,0.5909 -0.204846,1.09109 -0.61495,1.5012 -0.410104,0.4101 -0.910815,0.61546 -1.501717,0.61546 -0.590905,0 -1.091613,-0.20536 -1.501717,-0.61546 -0.410104,-0.41011 -0.61495,-0.9103 -0.61495,-1.5012 0,-0.5909 0.204846,-1.09161 0.61495,-1.50172 0.410104,-0.4101 0.910812,-0.61495 1.501717,-0.61495 z" />
  </g>
</svg>
