<?xml version="1.0" encoding="UTF-8" standalone="no"?>
<!-- Created with Inkscape (http://www.inkscape.org/) -->

<svg
   width="5.5845404mm"
   height="5.2241659mm"
   viewBox="0 0 5.5845404 5.2241659"
   version="1.1"
   id="svg10554"
   inkscape:version="1.1.2 (0a00cf5339, 2022-02-04)"
   sodipodi:docname="lap.svg"
   xmlns:inkscape="http://www.inkscape.org/namespaces/inkscape"
   xmlns:sodipodi="http://sodipodi.sourceforge.net/DTD/sodipodi-0.dtd"
   xmlns="http://www.w3.org/2000/svg"
   xmlns:svg="http://www.w3.org/2000/svg">
  <sodipodi:namedview
     id="namedview10556"
     pagecolor="#ffffff"
     bordercolor="#666666"
     borderopacity="1.0"
     inkscape:pageshadow="2"
     inkscape:pageopacity="0.0"
     inkscape:pagecheckerboard="0"
     inkscape:document-units="mm"
     showgrid="false"
     fit-margin-top="0"
     fit-margin-left="0"
     fit-margin-right="0"
     fit-margin-bottom="0"
     inkscape:zoom="28.291607"
     inkscape:cx="8.9956007"
     inkscape:cy="10.002967"
     inkscape:window-width="1920"
     inkscape:window-height="1043"
     inkscape:window-x="0"
     inkscape:window-y="0"
     inkscape:window-maximized="1"
     inkscape:current-layer="layer1" />
  <defs
     id="defs10551" />
  <g
     inkscape:label="Layer 1"
     inkscape:groupmode="layer"
     id="layer1"
     transform="translate(-54.700767,-20.187809)">
    <path
       id="path3802-8-6"
       d="m 57.989417,20.276089 c -0.32069,-0.0859 -0.65256,-0.10892 -0.99611,-0.0699 -0.34355,0.0391 -0.67252,0.14936 -0.98692,0.33087 -0.5743,0.33158 -0.96412,0.81077 -1.16936,1.43789 -0.20524,0.62712 -0.17864,1.25143 0.0799,1.87348 l 0.51549,-0.29755 c -0.18882,-0.47227 -0.20094,-0.94598 -0.0365,-1.42103 0.16449,-0.47502 0.4648,-0.83822 0.90076,-1.08992 0.49046,-0.28317 1.00498,-0.35285 1.54387,-0.20845 0.4327,0.12422 0.96518,0.42569 1.23327,0.95258 l -0.67276,0.42349 1.48522,0.3933 0.39903,-1.49163 -0.70861,0.38457 c 0,0 -0.41126,-0.5744 -0.68926,-0.77999 -0.27799,-0.20561 -0.57735,-0.35176 -0.89805,-0.43769 z m 1.19339,3.32312 c -0.0707,0.15822 -0.15843,0.30379 -0.26321,0.43693 -0.10476,0.13315 -0.22265,0.25132 -0.35308,0.35456 l 0.29804,0.51554 c 0.19927,-0.14859 0.37443,-0.3194 0.52547,-0.5128 0.15104,-0.1934 0.26947,-0.40424 0.35551,-0.63277 z m -3.4596,0.45471 -0.516,0.29791 c 0.14198,0.19749 0.30966,0.36886 0.50274,0.51449 0.19307,0.14564 0.40743,0.26798 0.64321,0.36659 l 0.16152,-0.56271 c -0.15822,-0.0707 -0.30417,-0.15854 -0.43733,-0.26331 -0.13315,-0.10477 -0.25084,-0.22254 -0.35409,-0.35296 z m 2.34037,0.6271 c -0.15464,0.0613 -0.31583,0.10435 -0.48353,0.12851 -0.1677,0.0242 -0.33761,0.0273 -0.51,0.009 l -0.14148,0.56808 c 0.25351,0.0325 0.50032,0.0337 0.74034,0.004 0.24002,-0.0296 0.47055,-0.0943 0.69224,-0.1943 z m -0.43284,-3.62274 c -0.0893,0 -0.16565,0.0316 -0.22921,0.0952 -0.0636,0.0636 -0.0957,0.13995 -0.0957,0.22921 0,0.0893 0.0321,0.16565 0.0957,0.2292 0.0636,0.0636 0.13995,0.0957 0.22921,0.0957 0.0893,0 0.16565,-0.0321 0.22921,-0.0957 0.0636,-0.0635 0.0952,-0.13995 0.0952,-0.2292 0,-0.0893 -0.0316,-0.16564 -0.0952,-0.22921 -0.0636,-0.0636 -0.13995,-0.0952 -0.22921,-0.0952 z m -0.24352,0.73009 c -0.0379,0 -0.0792,0.006 -0.1238,0.0183 -0.0446,0.0122 -0.11439,0.0385 -0.20906,0.0791 l -0.64068,0.27607 v 0.76273 c 0.12358,0.11112 0.22721,0.0796 0.32438,0 v -0.55183 l 0.29214,-0.11388 -0.25959,1.31447 -0.7792,-0.16219 c -0.13074,0.0748 -0.12871,0.19041 -0.0648,0.32478 l 1.11965,0.22697 0.16219,-0.71394 0.34093,0.32438 v 0.97401 c 0.0983,0.0744 0.22026,0.0666 0.32478,0 v -1.21706 l -0.34085,-0.32486 0.0974,-0.48657 c 0.10549,0.12172 0.23587,0.21962 0.3914,0.29399 0.15552,0.0744 0.32277,0.11173 0.50128,0.11173 0.12116,-0.11076 0.11506,-0.21911 0,-0.32486 -0.15417,0 -0.29159,-0.0364 -0.41195,-0.1094 -0.12037,-0.073 -0.21568,-0.16656 -0.286,-0.28016 l -0.16259,-0.2596 c -0.0298,-0.0487 -0.0688,-0.0877 -0.11748,-0.11749 -0.0487,-0.0298 -0.10139,-0.0447 -0.15819,-0.0447 z"
       sodipodi:nodetypes="cccsccsscccccccccccccsccccsccscccscccccscscscscssscccccccccccccccccccccsccsss"
       inkscape:export-filename="/home/rudson/Documents/Projects/Flutter/trainers_stopwatch/assets/svgs/StopwatchIcons/path3802-8-6.png"
       inkscape:export-xdpi="124.215"
       inkscape:export-ydpi="124.215" />
  </g>
</svg>
