<?xml version="1.0" encoding="UTF-8" standalone="no"?>
<!-- Created with Inkscape (http://www.inkscape.org/) -->

<svg
   width="5.2916698mm"
   height="5.93504mm"
   viewBox="0 0 5.2916698 5.93504"
   version="1.1"
   id="svg11369"
   inkscape:version="1.1.2 (0a00cf5339, 2022-02-04)"
   sodipodi:docname="lap1.svg"
   xmlns:inkscape="http://www.inkscape.org/namespaces/inkscape"
   xmlns:sodipodi="http://sodipodi.sourceforge.net/DTD/sodipodi-0.dtd"
   xmlns="http://www.w3.org/2000/svg"
   xmlns:svg="http://www.w3.org/2000/svg">
  <sodipodi:namedview
     id="namedview11371"
     pagecolor="#ffffff"
     bordercolor="#666666"
     borderopacity="1.0"
     inkscape:pageshadow="2"
     inkscape:pageopacity="0.0"
     inkscape:pagecheckerboard="0"
     inkscape:document-units="mm"
     showgrid="false"
     inkscape:zoom="24.902957"
     inkscape:cx="6.4851735"
     inkscape:cy="10.641306"
     inkscape:window-width="1920"
     inkscape:window-height="1043"
     inkscape:window-x="0"
     inkscape:window-y="0"
     inkscape:window-maximized="1"
     inkscape:current-layer="layer1" />
  <defs
     id="defs11366" />
  <g
     inkscape:label="Layer 1"
     inkscape:groupmode="layer"
     id="layer1"
     transform="translate(-276.17892,-225.87532)">
    <path
       id="path9866-3"
       d="m 279.12229,227.40859 c -0.0893,-1e-5 -0.16565,0.0316 -0.22921,0.0952 -0.0636,0.0636 -0.0957,0.13994 -0.0957,0.22921 0,0.0893 0.0321,0.16565 0.0957,0.2292 0.0636,0.0636 0.13995,0.0957 0.22921,0.0957 0.0893,0 0.16565,-0.0321 0.22921,-0.0957 0.0636,-0.0636 0.0952,-0.13995 0.0952,-0.2292 0,-0.0893 -0.0316,-0.16565 -0.0952,-0.22921 -0.0636,-0.0636 -0.13995,-0.0952 -0.22921,-0.0952 z m -0.24352,0.73009 c -0.0379,0 -0.0792,0.006 -0.1238,0.0183 -0.0446,0.0122 -0.11439,0.0385 -0.20906,0.0791 l -0.64068,0.27607 v 0.76272 c 0.12358,0.11113 0.22721,0.0796 0.32438,0 v -0.55183 l 0.29215,-0.11388 -0.2596,1.31447 -0.7792,-0.16219 c -0.13074,0.0748 -0.1287,0.19041 -0.0648,0.32478 l 1.11965,0.22697 0.16219,-0.71393 0.34093,0.32438 v 0.97401 c 0.0983,0.0744 0.22025,0.0666 0.32478,0 v -1.21706 l -0.34086,-0.32486 0.0974,-0.48657 c 0.1055,0.12171 0.23588,0.21961 0.39141,0.29399 0.15552,0.0744 0.32277,0.11172 0.50128,0.11173 0.12116,-0.11076 0.11506,-0.21912 0,-0.32486 -0.15417,0 -0.29159,-0.0364 -0.41196,-0.1094 -0.12036,-0.073 -0.21567,-0.16656 -0.28599,-0.28017 l -0.16259,-0.2596 c -0.0297,-0.0487 -0.0688,-0.0877 -0.11748,-0.11747 -0.0487,-0.0298 -0.1014,-0.0447 -0.15821,-0.0447 z m -0.82813,-2.26336 -10e-6,0.52917 h 1.58751 v -0.52917 z m 2.47633,0.57206 -0.33073,0.45423 c -0.10753,-0.0649 -0.22048,-0.12329 -0.33951,-0.17466 -0.32191,-0.13891 -0.66598,-0.20826 -1.03198,-0.20825 -0.36601,0 -0.71007,0.0694 -1.03198,0.20825 -0.32191,0.13891 -0.60162,0.32722 -0.83974,0.56534 -0.23813,0.23813 -0.42695,0.51835 -0.56586,0.84026 -0.13891,0.32191 -0.20825,0.66597 -0.20825,1.03198 0,0.36601 0.0693,0.70955 0.20825,1.03146 0.13891,0.32191 0.32773,0.60213 0.56586,0.84026 0.23812,0.23812 0.51783,0.42643 0.83974,0.56534 0.32191,0.13891 0.66598,0.20877 1.03198,0.20877 0.36601,0 0.71007,-0.0699 1.03198,-0.20877 0.32191,-0.13891 0.60162,-0.32722 0.83974,-0.56534 0.23813,-0.23813 0.42695,-0.51835 0.56586,-0.84026 0.13891,-0.32191 0.20826,-0.66546 0.20826,-1.03146 0,-0.36601 -0.0694,-0.71007 -0.20826,-1.03198 -0.1389,-0.32191 -0.32773,-0.60214 -0.56585,-0.84026 -0.025,-0.025 -0.0511,-0.0489 -0.077,-0.0729 l 0.33538,-0.46044 z m -1.70222,0.60048 c 0.5909,0 1.09161,0.20485 1.50172,0.61495 0.4101,0.4101 0.61495,0.91081 0.61494,1.50171 10e-6,0.59091 -0.20484,1.0911 -0.61494,1.5012 -0.41011,0.41011 -0.91082,0.61547 -1.50172,0.61547 -0.59091,0 -1.09162,-0.20536 -1.50172,-0.61547 -0.4101,-0.4101 -0.61495,-0.91029 -0.61495,-1.5012 0,-0.5909 0.20484,-1.09161 0.61495,-1.50171 0.41011,-0.41011 0.91081,-0.61495 1.50172,-0.61495 z" />
  </g>
</svg>
