<?xml version="1.0" encoding="UTF-8" standalone="no"?>
<!-- Created with Inkscape (http://www.inkscape.org/) -->

<svg
   width="5.8101263mm"
   height="5.2927151mm"
   viewBox="0 0 5.8101263 5.2927151"
   version="1.1"
   id="svg11527"
   inkscape:version="1.1.2 (0a00cf5339, 2022-02-04)"
   sodipodi:docname="lap2.svg"
   xmlns:inkscape="http://www.inkscape.org/namespaces/inkscape"
   xmlns:sodipodi="http://sodipodi.sourceforge.net/DTD/sodipodi-0.dtd"
   xmlns="http://www.w3.org/2000/svg"
   xmlns:svg="http://www.w3.org/2000/svg">
  <sodipodi:namedview
     id="namedview11529"
     pagecolor="#ffffff"
     bordercolor="#666666"
     borderopacity="1.0"
     inkscape:pageshadow="2"
     inkscape:pageopacity="0.0"
     inkscape:pagecheckerboard="0"
     inkscape:document-units="mm"
     showgrid="false"
     inkscape:zoom="27.925185"
     inkscape:cx="3.348232"
     inkscape:cy="5.2282554"
     inkscape:window-width="1920"
     inkscape:window-height="1043"
     inkscape:window-x="0"
     inkscape:window-y="0"
     inkscape:window-maximized="1"
     inkscape:current-layer="layer1" />
  <defs
     id="defs11524" />
  <g
     inkscape:label="Layer 1"
     inkscape:groupmode="layer"
     id="layer1"
     transform="translate(-93.341112,-143.99483)">
    <path
       id="path9866-9-8"
       d="m 96.331014,144.90577 c -0.08926,0 -0.165646,0.0316 -0.229206,0.0952 -0.06356,0.0636 -0.09566,0.13995 -0.09566,0.22921 -2e-6,0.0893 0.03209,0.16565 0.09566,0.22921 0.06356,0.0636 0.139951,0.0957 0.229205,0.0957 0.08926,0 0.165655,-0.0321 0.229208,-0.0957 0.06356,-0.0635 0.09516,-0.13995 0.09517,-0.22921 2e-6,-0.0893 -0.03162,-0.16564 -0.09516,-0.22921 -0.06356,-0.0636 -0.139947,-0.0952 -0.22921,-0.0952 z m -0.24352,0.73009 c -0.03787,0 -0.07917,0.006 -0.123802,0.0183 -0.04463,0.0122 -0.114388,0.0385 -0.209055,0.0791 l -0.640681,0.27608 v 0.76272 c 0.12358,0.11112 0.227212,0.0796 0.324381,0 l -3e-6,-0.55183 0.292148,-0.11389 -0.259596,1.31448 -0.779199,-0.16219 c -0.130741,0.0748 -0.128707,0.19041 -0.06476,0.32478 l 1.119649,0.22697 0.162187,-0.71394 0.340934,0.32438 2e-6,0.97402 c 0.09835,0.0744 0.220249,0.0666 0.324777,0 l -2e-6,-1.21707 -0.340855,-0.32486 0.09741,-0.48656 c 0.105492,0.12171 0.235876,0.21961 0.391401,0.29398 0.155521,0.0744 0.322771,0.11173 0.501282,0.11173 0.121165,-0.11076 0.115061,-0.21911 -1e-6,-0.32486 -0.154165,0 -0.29159,-0.0364 -0.411954,-0.1094 -0.120366,-0.073 -0.215675,-0.16655 -0.285993,-0.28016 l -0.16259,-0.2596 c -0.02975,-0.0487 -0.0688,-0.0877 -0.117482,-0.11748 -0.04868,-0.0298 -0.101394,-0.0447 -0.158204,-0.0447 z m 1.153288,-1.34568 c -0.297088,-0.16571 -0.560864,-0.2399 -0.904444,-0.27874 -0.336672,-0.0381 -0.730466,-0.0128 -1.113449,0.0981 -0.382981,0.11095 -0.954795,0.37915 -1.397842,1.00431 -0.381532,0.53836 -0.549432,1.23877 -0.460697,1.90654 l 0.516925,-0.0995 c -0.04535,-0.50605 0.05801,-1.06776 0.352767,-1.48388 0.290568,-0.41021 0.655099,-0.6968 1.141357,-0.82709 0.547034,-0.14657 1.195342,-0.0892 1.678502,0.18975 0.385803,0.23198 0.84381,0.65509 0.966403,1.23341 l -0.670204,0.1281 1.056319,0.79096 0.744819,-1.11529 -0.6136,0.0828 c -0.115275,-0.39222 -0.311256,-0.7261 -0.526574,-0.99664 -0.263754,-0.31103 -0.473194,-0.46711 -0.770282,-0.63283 z m 0.375587,3.70947 c -0.109281,0.13452 -0.270537,0.28199 -0.407871,0.38002 -0.137894,0.0984 -0.280636,0.17061 -0.433339,0.23658 l 0.129004,0.50631 c 0.230941,-0.0919 0.431066,-0.1931 0.629516,-0.33743 0.200708,-0.14598 0.38457,-0.31679 0.531987,-0.50843 z m -4.121901,-0.46578 c 0.08602,0.22751 0.186986,0.42491 0.32293,0.62493 0.132491,0.19495 0.306884,0.37656 0.49678,0.53623 l 0.305888,-0.43366 c -0.134522,-0.10928 -0.286306,-0.28675 -0.387806,-0.42241 -0.101505,-0.13565 -0.169212,-0.29259 -0.235188,-0.44529 0,0 -0.378671,0.10699 -0.502604,0.1402 z m 2.71055,1.20982 c -0.194925,0.0198 -0.416502,0.008 -0.587,-0.0162 -0.167723,-0.024 -0.374869,-0.086 -0.536966,-0.16213 l -0.235827,0.46224 c 0.225638,0.10332 0.456071,0.18507 0.695578,0.21858 0.239498,0.0336 0.498738,0.0614 0.738768,0.0222 z"
       sodipodi:nodetypes="ssccscccsscccccccccccccccccccccccccccczcccccccccccccczccccccccccccccccccccc" />
  </g>
</svg>
