<?xml version="1.0" encoding="UTF-8" standalone="no"?>
<!-- Created with Inkscape (http://www.inkscape.org/) -->

<svg
   width="5.291666mm"
   height="5.93504mm"
   viewBox="0 0 5.291666 5.93504"
   version="1.1"
   id="svg10733"
   inkscape:version="1.1.2 (0a00cf5339, 2022-02-04)"
   sodipodi:docname="pause.svg"
   xmlns:inkscape="http://www.inkscape.org/namespaces/inkscape"
   xmlns:sodipodi="http://sodipodi.sourceforge.net/DTD/sodipodi-0.dtd"
   xmlns="http://www.w3.org/2000/svg"
   xmlns:svg="http://www.w3.org/2000/svg">
  <sodipodi:namedview
     id="namedview10735"
     pagecolor="#ffffff"
     bordercolor="#666666"
     borderopacity="1.0"
     inkscape:pageshadow="2"
     inkscape:pageopacity="0.0"
     inkscape:pagecheckerboard="0"
     inkscape:document-units="mm"
     showgrid="false"
     inkscape:zoom="17.60905"
     inkscape:cx="2.7542655"
     inkscape:cy="10.05165"
     inkscape:window-width="1920"
     inkscape:window-height="1043"
     inkscape:window-x="0"
     inkscape:window-y="0"
     inkscape:window-maximized="1"
     inkscape:current-layer="layer1" />
  <defs
     id="defs10730" />
  <g
     inkscape:label="Layer 1"
     inkscape:groupmode="layer"
     id="layer1"
     transform="translate(-50.227602,-113.51927)">
    <path
       id="use2691"
       d="m 52.099322,113.51927 v 0.52917 h 1.5875 v -0.52917 z m 2.476334,0.57206 -0.330729,0.45423 c -0.107527,-0.0649 -0.220475,-0.1233 -0.339514,-0.17466 -0.32191,-0.13891 -0.665972,-0.20826 -1.031978,-0.20826 -0.366006,0 -0.71007,0.0694 -1.031978,0.20826 -0.321911,0.13891 -0.601618,0.32721 -0.839743,0.56534 -0.238125,0.23812 -0.42695,0.51835 -0.565856,0.84026 -0.138906,0.32191 -0.208256,0.66597 -0.208256,1.03198 0,0.366 0.06935,0.70955 0.208256,1.03146 0.138906,0.32191 0.327731,0.60213 0.565856,0.84025 0.238125,0.23813 0.517832,0.42644 0.839743,0.56535 0.321908,0.1389 0.665972,0.20877 1.031978,0.20877 0.366006,0 0.710068,-0.0699 1.031978,-0.20877 0.321911,-0.13891 0.601618,-0.32722 0.839743,-0.56535 0.238125,-0.23812 0.42695,-0.51834 0.565856,-0.84025 0.138906,-0.32191 0.208256,-0.66546 0.208256,-1.03146 0,-0.36601 -0.06935,-0.71007 -0.208256,-1.03198 -0.138906,-0.32191 -0.327731,-0.60214 -0.565856,-0.84026 -0.02502,-0.025 -0.05106,-0.0489 -0.077,-0.0729 l 0.33538,-0.46044 z m -1.702221,0.60048 c 0.590902,0 1.091613,0.20484 1.501717,0.61495 0.410104,0.4101 0.61495,0.91081 0.61495,1.50172 0,0.5909 -0.204846,1.09109 -0.61495,1.5012 -0.410104,0.4101 -0.910815,0.61546 -1.501717,0.61546 -0.590905,0 -1.091613,-0.20536 -1.501717,-0.61546 -0.410104,-0.41011 -0.61495,-0.9103 -0.61495,-1.5012 0,-0.59091 0.204846,-1.09162 0.61495,-1.50172 0.410104,-0.41011 0.910812,-0.61495 1.501717,-0.61495 z m -0.79553,3.25126 h 0.529167 v -2.11666 h -0.529167 z m 1.058333,0 h 0.529167 v -2.11666 h -0.529167 z m -0.264583,-1.05833 z" />
  </g>
</svg>
