<?xml version="1.0" encoding="UTF-8" standalone="no"?>
<!-- Created with Inkscape (http://www.inkscape.org/) -->

<svg
   width="5.2916698mm"
   height="5.9352498mm"
   viewBox="0 0 5.2916698 5.9352498"
   version="1.1"
   id="svg1367"
   inkscape:version="1.1.2 (0a00cf5339, 2022-02-04)"
   sodipodi:docname="reset.svg"
   xmlns:inkscape="http://www.inkscape.org/namespaces/inkscape"
   xmlns:sodipodi="http://sodipodi.sourceforge.net/DTD/sodipodi-0.dtd"
   xmlns="http://www.w3.org/2000/svg"
   xmlns:svg="http://www.w3.org/2000/svg">
  <sodipodi:namedview
     id="namedview1369"
     pagecolor="#ffffff"
     bordercolor="#666666"
     borderopacity="1.0"
     inkscape:pageshadow="2"
     inkscape:pageopacity="0.0"
     inkscape:pagecheckerboard="0"
     inkscape:document-units="mm"
     showgrid="false"
     inkscape:zoom="17.608428"
     inkscape:cx="0.42593241"
     inkscape:cy="14.822448"
     inkscape:window-width="1920"
     inkscape:window-height="1043"
     inkscape:window-x="0"
     inkscape:window-y="0"
     inkscape:window-maximized="1"
     inkscape:current-layer="layer1" />
  <defs
     id="defs1364" />
  <g
     inkscape:label="Layer 1"
     inkscape:groupmode="layer"
     id="layer1"
     transform="translate(-106.8187,-116.82375)">
    <path
       id="path1197"
       d="m 108.69063,116.82375 v 0.52917 h 1.5875 v -0.52917 z m 2.47612,0.57227 -0.33072,0.45424 c -0.10753,-0.0649 -0.22048,-0.12331 -0.33952,-0.17467 -0.32191,-0.13891 -0.66597,-0.20826 -1.03198,-0.20826 -0.366,0 -0.71007,0.0694 -1.03197,0.20826 -0.32191,0.1389 -0.60162,0.32721 -0.83975,0.56534 -0.23812,0.23812 -0.42695,0.51835 -0.56585,0.84026 -0.13891,0.32191 -0.20826,0.66597 -0.20826,1.03198 0,0.366 0.0694,0.70955 0.20826,1.03146 0.1389,0.32191 0.32773,0.60213 0.56585,0.84026 0.23813,0.23812 0.51784,0.42643 0.83975,0.56534 0.3219,0.1389 0.66597,0.20877 1.03197,0.20877 0.36601,0 0.71007,-0.0699 1.03198,-0.20877 0.32191,-0.13891 0.60162,-0.32722 0.83974,-0.56534 0.23813,-0.23813 0.42696,-0.51835 0.56586,-0.84026 0.13891,-0.32191 0.20826,-0.66546 0.20826,-1.03146 0,-0.36601 -0.0694,-0.71007 -0.20826,-1.03198 -0.1389,-0.32191 -0.32773,-0.60214 -0.56586,-0.84026 -0.025,-0.025 -0.0511,-0.0489 -0.077,-0.0729 l 0.33539,-0.46044 z m -1.70222,0.60048 c 0.59091,0 1.09162,0.20485 1.50172,0.61495 0.4101,0.4101 0.61495,0.91081 0.61495,1.50171 0,0.59091 -0.20485,1.0911 -0.61495,1.50121 -0.4101,0.4101 -0.91081,0.61546 -1.50172,0.61546 -0.5909,0 -1.09161,-0.20536 -1.50171,-0.61546 -0.41011,-0.41011 -0.61495,-0.9103 -0.61495,-1.50121 0,-0.5909 0.20484,-1.09161 0.61495,-1.50171 0.4101,-0.41011 0.91081,-0.61495 1.50171,-0.61495 z m -0.17922,3.62155 q -0.53632,-0.0665 -0.8887,-0.46762 -0.35238,-0.40113 -0.35238,-0.94189 0,-0.29254 0.11525,-0.5607 0.11525,-0.26816 0.328,-0.46762 l 0.25265,0.25265 q -0.16844,0.1507 -0.25487,0.35016 -0.0864,0.19946 -0.0864,0.42551 0,0.39005 0.24821,0.68924 0.24822,0.29919 0.63827,0.36568 z m 0.35459,0 v -0.35459 q 0.38562,-0.0709 0.63605,-0.3679 0.25043,-0.29697 0.25043,-0.68702 0,-0.44324 -0.31027,-0.75351 -0.31027,-0.31027 -0.75351,-0.31027 h -0.0133 l 0.19503,0.19503 -0.24821,0.24821 -0.62054,-0.62054 0.62054,-0.62054 0.24821,0.24822 -0.19503,0.19503 h 0.0133 q 0.59395,0 1.00616,0.41221 0.41221,0.41222 0.41221,1.00616 0,0.53632 -0.35237,0.93746 -0.35238,0.40113 -0.8887,0.47205 z" />
  </g>
</svg>
