<?xml version="1.0" encoding="UTF-8" standalone="no"?>
<!-- Created with Inkscape (http://www.inkscape.org/) -->

<svg
   width="5.2916598mm"
   height="5.93504mm"
   viewBox="0 0 5.2916598 5.93504"
   version="1.1"
   id="svg12512"
   inkscape:version="1.1.2 (0a00cf5339, 2022-02-04)"
   sodipodi:docname="snooze.svg"
   xmlns:inkscape="http://www.inkscape.org/namespaces/inkscape"
   xmlns:sodipodi="http://sodipodi.sourceforge.net/DTD/sodipodi-0.dtd"
   xmlns="http://www.w3.org/2000/svg"
   xmlns:svg="http://www.w3.org/2000/svg">
  <sodipodi:namedview
     id="namedview12514"
     pagecolor="#ffffff"
     bordercolor="#666666"
     borderopacity="1.0"
     inkscape:pageshadow="2"
     inkscape:pageopacity="0.0"
     inkscape:pagecheckerboard="0"
     inkscape:document-units="mm"
     showgrid="false"
     inkscape:zoom="8.8045251"
     inkscape:cx="-6.3603658"
     inkscape:cy="11.812108"
     inkscape:window-width="1920"
     inkscape:window-height="1043"
     inkscape:window-x="0"
     inkscape:window-y="0"
     inkscape:window-maximized="1"
     inkscape:current-layer="layer1" />
  <defs
     id="defs12509" />
  <g
     inkscape:label="Layer 1"
     inkscape:groupmode="layer"
     id="layer1"
     transform="translate(-124.1678,-112.69312)">
    <path
       id="path11979"
       d="m 126.17905,116.74938 h 1.32291 v -0.39687 h -0.74083 l 0.74083,-0.83344 v -0.35719 h -1.32291 v 0.39688 h 0.75406 l -0.75406,0.84667 z m -0.13953,-4.05626 v 0.52917 h 1.5875 v -0.52917 z m 2.47633,0.57206 -0.33073,0.45423 c -0.10753,-0.0649 -0.22047,-0.1233 -0.33951,-0.17466 -0.32191,-0.13891 -0.66597,-0.20826 -1.03198,-0.20826 -0.36601,0 -0.71007,0.0694 -1.03198,0.20826 -0.32191,0.1389 -0.60162,0.32721 -0.83974,0.56534 -0.23813,0.23812 -0.42695,0.51835 -0.56586,0.84026 -0.1389,0.32191 -0.20825,0.66597 -0.20825,1.03198 0,0.366 0.0694,0.70955 0.20825,1.03146 0.13891,0.32191 0.32773,0.60213 0.56586,0.84026 0.23812,0.23812 0.51783,0.42643 0.83974,0.56534 0.32191,0.1389 0.66597,0.20877 1.03198,0.20877 0.36601,0 0.71007,-0.0699 1.03198,-0.20877 0.32191,-0.13891 0.60162,-0.32722 0.83974,-0.56534 0.23813,-0.23813 0.42695,-0.51835 0.56586,-0.84026 0.1389,-0.32191 0.20825,-0.66546 0.20825,-1.03146 0,-0.36601 -0.0694,-0.71007 -0.20825,-1.03198 -0.13891,-0.32191 -0.32773,-0.60214 -0.56586,-0.84026 -0.025,-0.025 -0.0511,-0.0489 -0.077,-0.0729 l 0.33538,-0.46044 z m -1.70222,0.60048 c 0.5909,0 1.09161,0.20484 1.50172,0.61495 0.4101,0.4101 0.61495,0.91081 0.61495,1.50172 0,0.5909 -0.20485,1.09109 -0.61495,1.5012 -0.41011,0.4101 -0.91082,0.61546 -1.50172,0.61546 -0.59091,0 -1.09161,-0.20536 -1.50172,-0.61546 -0.4101,-0.41011 -0.61495,-0.9103 -0.61495,-1.5012 0,-0.59091 0.20485,-1.09162 0.61495,-1.50172 0.41011,-0.41011 0.91081,-0.61495 1.50172,-0.61495 z" />
  </g>
</svg>
