<?xml version="1.0" encoding="UTF-8" standalone="no"?>
<!-- Created with Inkscape (http://www.inkscape.org/) -->

<svg
   width="5.291666mm"
   height="5.9350371mm"
   viewBox="0 0 5.291666 5.9350371"
   version="1.1"
   id="svg10873"
   inkscape:version="1.1.2 (0a00cf5339, 2022-02-04)"
   sodipodi:docname="start.svg"
   xmlns:inkscape="http://www.inkscape.org/namespaces/inkscape"
   xmlns:sodipodi="http://sodipodi.sourceforge.net/DTD/sodipodi-0.dtd"
   xmlns="http://www.w3.org/2000/svg"
   xmlns:svg="http://www.w3.org/2000/svg">
  <sodipodi:namedview
     id="namedview10875"
     pagecolor="#ffffff"
     bordercolor="#666666"
     borderopacity="1.0"
     inkscape:pageshadow="2"
     inkscape:pageopacity="0.0"
     inkscape:pagecheckerboard="0"
     inkscape:document-units="mm"
     showgrid="false"
     inkscape:zoom="17.609059"
     inkscape:cx="7.1838025"
     inkscape:cy="13.175037"
     inkscape:window-width="1920"
     inkscape:window-height="1043"
     inkscape:window-x="0"
     inkscape:window-y="0"
     inkscape:window-maximized="1"
     inkscape:current-layer="layer1" />
  <defs
     id="defs10870" />
  <g
     inkscape:label="Layer 1"
     inkscape:groupmode="layer"
     id="layer1"
     transform="translate(-69.228993,-77.168782)">
    <path
       id="use2689"
       d="m 71.100713,77.168782 v 0.529166 h 1.5875 v -0.529166 z m 2.476334,0.572057 -0.330729,0.454236 c -0.107527,-0.0649 -0.220475,-0.1233 -0.339514,-0.174666 -0.32191,-0.138906 -0.665972,-0.208256 -1.031978,-0.208256 -0.366006,0 -0.71007,0.06935 -1.031978,0.208256 -0.321911,0.138907 -0.601618,0.327215 -0.839743,0.56534 -0.238125,0.238125 -0.42695,0.518351 -0.565856,0.840259 -0.138906,0.32191 -0.208256,0.665972 -0.208256,1.031978 0,0.366008 0.06935,0.709551 0.208256,1.031462 0.138906,0.321911 0.327731,0.602133 0.565856,0.840258 0.238125,0.238125 0.517832,0.426435 0.839743,0.565341 0.321908,0.138906 0.665972,0.208772 1.031978,0.208772 0.366006,0 0.710068,-0.06987 1.031978,-0.208772 0.321911,-0.138906 0.601618,-0.327216 0.839743,-0.565341 0.238125,-0.238125 0.42695,-0.518347 0.565856,-0.840258 0.138906,-0.321911 0.208256,-0.665454 0.208256,-1.031462 0,-0.366006 -0.06935,-0.710068 -0.208256,-1.031978 -0.138906,-0.321908 -0.327731,-0.602134 -0.565856,-0.840259 -0.02502,-0.02502 -0.05106,-0.04894 -0.077,-0.07286 l 0.33538,-0.460436 z m -1.702221,0.60048 c 0.590902,0 1.091613,0.204846 1.501717,0.61495 0.410104,0.410104 0.61495,0.910815 0.61495,1.501717 0,0.590904 -0.204846,1.091096 -0.61495,1.501201 -0.410104,0.410104 -0.910815,0.615465 -1.501717,0.615465 -0.590905,0 -1.091613,-0.205361 -1.501717,-0.615465 -0.410104,-0.410105 -0.61495,-0.910297 -0.61495,-1.501201 0,-0.590902 0.204846,-1.091613 0.61495,-1.501717 0.410104,-0.410104 0.910812,-0.61495 1.501717,-0.61495 z m -0.661497,3.326471 1.852083,-1.190625 -1.852083,-1.190625 z m 0.661459,-1.190625 z" />
  </g>
</svg>
