<?xml version="1.0" encoding="UTF-8" standalone="no"?>
<!-- Created with Inkscape (http://www.inkscape.org/) -->

<svg
   width="5.2916698mm"
   height="5.93504mm"
   viewBox="0 0 5.2916698 5.93504"
   version="1.1"
   id="svg10995"
   inkscape:version="1.1.2 (0a00cf5339, 2022-02-04)"
   sodipodi:docname="stop.svg"
   xmlns:inkscape="http://www.inkscape.org/namespaces/inkscape"
   xmlns:sodipodi="http://sodipodi.sourceforge.net/DTD/sodipodi-0.dtd"
   xmlns="http://www.w3.org/2000/svg"
   xmlns:svg="http://www.w3.org/2000/svg">
  <sodipodi:namedview
     id="namedview10997"
     pagecolor="#ffffff"
     bordercolor="#666666"
     borderopacity="1.0"
     inkscape:pageshadow="2"
     inkscape:pageopacity="0.0"
     inkscape:pagecheckerboard="0"
     inkscape:document-units="mm"
     showgrid="false"
     inkscape:zoom="24.902957"
     inkscape:cx="8.6535906"
     inkscape:cy="11.765671"
     inkscape:window-width="1920"
     inkscape:window-height="1043"
     inkscape:window-x="0"
     inkscape:window-y="0"
     inkscape:window-maximized="1"
     inkscape:current-layer="layer1" />
  <defs
     id="defs10992" />
  <g
     inkscape:label="Layer 1"
     inkscape:groupmode="layer"
     id="layer1"
     transform="translate(-153.49603,-110.62775)">
    <path
       id="use2687"
       d="m 155.36775,110.62775 v 0.52917 h 1.5875 v -0.52917 z m 2.47634,0.57206 -0.33073,0.45424 c -0.10753,-0.0649 -0.22048,-0.1233 -0.33952,-0.17467 -0.32191,-0.13891 -0.66597,-0.20826 -1.03198,-0.20826 -0.366,0 -0.71007,0.0694 -1.03197,0.20826 -0.32191,0.13891 -0.60162,0.32722 -0.83975,0.56534 -0.23812,0.23813 -0.42695,0.51835 -0.56585,0.84026 -0.13891,0.32191 -0.20826,0.66597 -0.20826,1.03198 0,0.36601 0.0694,0.70955 0.20826,1.03146 0.1389,0.32191 0.32773,0.60213 0.56585,0.84026 0.23813,0.23812 0.51784,0.42643 0.83975,0.56534 0.3219,0.1389 0.66597,0.20877 1.03197,0.20877 0.36601,0 0.71007,-0.0699 1.03198,-0.20877 0.32191,-0.13891 0.60162,-0.32722 0.83975,-0.56534 0.23812,-0.23813 0.42695,-0.51835 0.56585,-0.84026 0.13891,-0.32191 0.20826,-0.66545 0.20826,-1.03146 0,-0.36601 -0.0694,-0.71007 -0.20826,-1.03198 -0.1389,-0.32191 -0.32773,-0.60213 -0.56585,-0.84026 -0.025,-0.025 -0.0511,-0.0489 -0.077,-0.0729 l 0.33538,-0.46044 z m -1.70223,0.60048 c 0.59091,0 1.09162,0.20485 1.50172,0.61495 0.41011,0.4101 0.61495,0.91081 0.61495,1.50172 0,0.5909 -0.20484,1.09109 -0.61495,1.5012 -0.4101,0.4101 -0.91081,0.61546 -1.50172,0.61546 -0.5909,0 -1.09161,-0.20536 -1.50171,-0.61546 -0.41011,-0.41011 -0.61495,-0.9103 -0.61495,-1.5012 0,-0.59091 0.20484,-1.09162 0.61495,-1.50172 0.4101,-0.4101 0.91081,-0.61495 1.50171,-0.61495 z m -1.04927,3.18627 h 2.11667 v -2.11666 h -2.11667 z m 1.04924,-1.10813 z" />
  </g>
</svg>
