<?xml version="1.0" encoding="UTF-8" standalone="no"?>
<!-- Created with Inkscape (http://www.inkscape.org/) -->

<svg
   width="147.52057mm"
   height="147.43172mm"
   viewBox="0 0 147.52057 147.43172"
   version="1.1"
   id="svg5"
   inkscape:version="1.1.2 (0a00cf5339, 2022-02-04)"
   sodipodi:docname="person.svg"
   xmlns:inkscape="http://www.inkscape.org/namespaces/inkscape"
   xmlns:sodipodi="http://sodipodi.sourceforge.net/DTD/sodipodi-0.dtd"
   xmlns="http://www.w3.org/2000/svg"
   xmlns:svg="http://www.w3.org/2000/svg">
  <sodipodi:namedview
     id="namedview7"
     pagecolor="#ffffff"
     bordercolor="#666666"
     borderopacity="1.0"
     inkscape:pageshadow="2"
     inkscape:pageopacity="0.0"
     inkscape:pagecheckerboard="0"
     inkscape:document-units="mm"
     showgrid="false"
     fit-margin-top="0"
     fit-margin-left="0"
     fit-margin-right="0"
     fit-margin-bottom="0"
     inkscape:zoom="0.64052329"
     inkscape:cx="247.45392"
     inkscape:cy="512.0813"
     inkscape:window-width="1920"
     inkscape:window-height="1043"
     inkscape:window-x="0"
     inkscape:window-y="0"
     inkscape:window-maximized="1"
     inkscape:current-layer="layer1" />
  <defs
     id="defs2" />
  <g
     inkscape:label="Layer 1"
     inkscape:groupmode="layer"
     id="layer1"
     transform="translate(-27.234925,-12.727083)">
    <path
       style="fill:#613583;stroke-width:0.338407"
       d="M 89.99654,159.59865 C 73.82236,157.06216 59.864246,149.92905 48.46906,138.37656 36.6768,126.42152 29.598073,111.71353 27.569183,94.951339 c -0.508403,-4.20029 -0.423387,-13.60528 0.16345,-18.08193 1.69648,-12.94148 7.265527,-26.10852 15.328362,-36.24123 12.192304,-15.32229 30.318177,-25.368958 49.796266,-27.600684 5.312744,-0.608714 16.452299,-0.24836 21.166159,0.684704 15.51719,3.071478 27.51233,9.2826 38.53936,19.95579 12.06487,11.67773 19.77289,27.20189 21.85018,44.00685 0.45726,3.69911 0.4565,13.92501 -0.001,17.61491 -2.03892,16.433731 -9.19265,31.251391 -20.71934,42.916391 -11.25802,11.3931 -24.19813,18.19429 -40.36389,21.21483 -4.80558,0.89791 -18.093943,0.99911 -23.331884,0.17768 z m 17.08955,-4.09274 c 18.83213,-1.66453 36.0605,-10.89986 47.95706,-25.70755 18.76962,-23.36263 20.34758,-56.145301 3.90934,-81.217621 C 137.78466,16.294654 94.348366,7.4762332 62.431163,28.985009 33.563059,48.439029 23.517291,86.021639 38.876007,117.1081 c 12.696767,25.69861 39.727759,40.91529 68.210083,38.39781 z m -14.213093,-5.7521 c -12.082886,-1.66273 -23.444503,-6.65482 -32.769602,-14.39836 -2.650124,-2.20066 -2.810035,-2.40806 -2.645667,-3.43133 0.248834,-1.54914 3.201612,-7.36616 5.468595,-10.77323 2.212622,-3.32536 7.0473,-8.35394 10.463066,-10.88269 11.938505,-8.83829 27.465601,-11.441691 41.603381,-6.97557 12.29967,3.88546 22.80633,13.25013 28.17199,25.10989 0.81047,1.79139 1.47604,3.58818 1.47903,3.99286 0.011,1.49006 -8.67483,7.82449 -15.2523,11.12321 -4.56798,2.29093 -10.42615,4.32351 -15.69543,5.44575 -3.49402,0.74415 -5.10453,0.88319 -11.34767,0.9797 -4.001665,0.0619 -8.265589,-0.0238 -9.475393,-0.19023 z m 2.707254,-53.242931 c -4.268923,-0.99701 -7.40683,-2.48838 -10.914152,-5.1872 -4.210392,-3.23982 -7.718231,-8.75312 -9.099723,-14.30212 -0.607552,-2.44032 -0.685737,-3.51185 -0.530882,-7.27574 0.124561,-3.02759 0.390626,-5.06823 0.847103,-6.49707 2.076653,-6.50023 7.053621,-12.49398 12.836911,-15.45946 4.313762,-2.21195 7.471047,-2.99998 12.106052,-3.02156 4.07643,-0.019 6.93161,0.52503 10.38549,1.97874 7.58576,3.19281 13.67949,10.47084 15.34408,18.32616 0.71685,3.38287 0.63721,8.89861 -0.1752,12.13395 -2.21941,8.83852 -8.9518,15.94248 -17.77101,18.7518 -2.93359,0.93448 -10.093145,1.23809 -13.028669,0.5525 z"
       id="path872"
       inkscape:export-filename="/home/rudson/Documents/Projects/Flutter/stopwatch/assets/images/person.png"
       inkscape:export-xdpi="88.208969"
       inkscape:export-ydpi="88.208969" />
  </g>
</svg>
