<?xml version="1.0" encoding="UTF-8" standalone="no"?>
<!-- Created with Inkscape (http://www.inkscape.org/) -->

<svg
   width="210mm"
   height="297mm"
   viewBox="0 0 210 297"
   version="1.1"
   id="svg5"
   inkscape:version="1.1.2 (0a00cf5339, 2022-02-04)"
   sodipodi:docname="StopwatchIcons.svg"
   xmlns:inkscape="http://www.inkscape.org/namespaces/inkscape"
   xmlns:sodipodi="http://sodipodi.sourceforge.net/DTD/sodipodi-0.dtd"
   xmlns:xlink="http://www.w3.org/1999/xlink"
   xmlns="http://www.w3.org/2000/svg"
   xmlns:svg="http://www.w3.org/2000/svg">
  <sodipodi:namedview
     id="namedview7"
     pagecolor="#ffffff"
     bordercolor="#666666"
     borderopacity="1.0"
     inkscape:pageshadow="2"
     inkscape:pageopacity="0.0"
     inkscape:pagecheckerboard="0"
     inkscape:document-units="mm"
     showgrid="false"
     showguides="true"
     inkscape:guide-bbox="true"
     inkscape:lockguides="true"
     inkscape:zoom="11.313708"
     inkscape:cx="179.25157"
     inkscape:cy="339.58803"
     inkscape:window-width="1920"
     inkscape:window-height="1043"
     inkscape:window-x="0"
     inkscape:window-y="0"
     inkscape:window-maximized="1"
     inkscape:current-layer="layer1">
    <sodipodi:guide
       position="38.482491,284.2577"
       orientation="1,0"
       id="guide912"
       inkscape:locked="true" />
    <sodipodi:guide
       position="51.667612,289.56805"
       orientation="1,0"
       id="guide914"
       inkscape:locked="true" />
  </sodipodi:namedview>
  <defs
     id="defs2" />
  <g
     inkscape:label="Layer 1"
     inkscape:groupmode="layer"
     id="layer1"
     style="display:inline">
    <g
       id="g1717"
       transform="translate(0,0.52916667)" />
    <path
       d="m 73.358587,15.350425 v -3.175 h 0.529167 v 3.175 z m -2.910416,0 v -3.175 l 2.38125,1.5875 z m 0.529166,-1.5875 z m 0,0.595312 0.899584,-0.595312 -0.899584,-0.595313 z"
       id="path847"
       style="stroke-width:0.00661458" />
    <path
       id="path874"
       d="m 54.336695,31.859371 q 0.661459,0 1.12448,-0.463021 0.46302,-0.463021 0.46302,-1.124479 0,-0.661458 -0.46302,-1.124479 -0.463021,-0.463021 -1.12448,-0.463021 v 1.5875 l -1.124479,1.124479 q 0.231511,0.218282 0.519245,0.340651 0.287734,0.12237 0.605234,0.12237 z M 53.562622,26.98285 v 0.529166 h 1.5875 V 26.98285 Z m 2.476334,0.572057 -0.330729,0.454236 c -0.107527,-0.0649 -0.220475,-0.1233 -0.339514,-0.174666 -0.32191,-0.138906 -0.665972,-0.208256 -1.031978,-0.208256 -0.366006,0 -0.71007,0.06935 -1.031978,0.208256 -0.321911,0.138907 -0.601618,0.327215 -0.839743,0.56534 -0.238125,0.238125 -0.42695,0.518351 -0.565856,0.840259 -0.138906,0.32191 -0.208256,0.665972 -0.208256,1.031978 0,0.366008 0.06935,0.709551 0.208256,1.031462 0.138906,0.321911 0.327731,0.602133 0.565856,0.840258 0.238125,0.238125 0.517832,0.426435 0.839743,0.565341 0.321908,0.138906 0.665972,0.208772 1.031978,0.208772 0.366006,0 0.710068,-0.06987 1.031978,-0.208772 0.321911,-0.138906 0.601618,-0.327216 0.839743,-0.565341 0.238125,-0.238125 0.42695,-0.518347 0.565856,-0.840258 0.138906,-0.321911 0.208256,-0.665454 0.208256,-1.031462 0,-0.366006 -0.06935,-0.710068 -0.208256,-1.031978 -0.138906,-0.321908 -0.327731,-0.602134 -0.565856,-0.840259 -0.02502,-0.02502 -0.05106,-0.04894 -0.077,-0.07286 l 0.33538,-0.460436 z m -1.702221,0.60048 c 0.590902,0 1.091613,0.204846 1.501717,0.61495 0.410104,0.410104 0.61495,0.910815 0.61495,1.501717 0,0.590904 -0.204846,1.091096 -0.61495,1.501201 -0.410104,0.410104 -0.910815,0.615465 -1.501717,0.615465 -0.590905,0 -1.091613,-0.205361 -1.501717,-0.615465 -0.410104,-0.410105 -0.61495,-0.910297 -0.61495,-1.501201 0,-0.590902 0.204846,-1.091613 0.61495,-1.501717 0.410104,-0.410104 0.910812,-0.61495 1.501717,-0.61495 z m -4e-5,2.116484 z" />
    <path
       d="m 70.559555,20.080941 v -0.529167 h 1.5875 v 0.529167 z m 0.529167,2.910417 h 0.529166 v -1.5875 h -0.529166 z m 0.264583,2.116666 c -0.326319,0 -0.633897,-0.06284 -0.922734,-0.188515 -0.288837,-0.125677 -0.541294,-0.296554 -0.75737,-0.512631 -0.216077,-0.216076 -0.386953,-0.468532 -0.51263,-0.757369 -0.125677,-0.288837 -0.188516,-0.596416 -0.188516,-0.922735 0,-0.326319 0.06284,-0.633897 0.188516,-0.922734 0.125677,-0.288837 0.296553,-0.541293 0.51263,-0.75737 0.216076,-0.216076 0.468533,-0.386953 0.75737,-0.51263 0.288837,-0.125677 0.596415,-0.188516 0.922734,-0.188516 0.273403,0 0.535781,0.0441 0.787135,0.132292 0.251355,0.08819 0.487275,0.216077 0.707761,0.383646 l 0.370416,-0.370417 0.370417,0.370417 -0.370417,0.370416 c 0.16757,0.220487 0.295452,0.456407 0.383646,0.707761 0.08819,0.251354 0.132292,0.513732 0.132292,0.787135 0,0.326319 -0.06284,0.633898 -0.188516,0.922735 -0.125677,0.288837 -0.296553,0.541293 -0.51263,0.757369 -0.216076,0.216077 -0.468533,0.386954 -0.75737,0.512631 -0.288837,0.125677 -0.596415,0.188515 -0.922734,0.188515 z m 0,-0.529166 c 0.511528,0 0.94809,-0.180799 1.309687,-0.542396 0.361597,-0.361597 0.542396,-0.79816 0.542396,-1.309688 0,-0.511527 -0.180799,-0.94809 -0.542396,-1.309687 -0.361597,-0.361597 -0.798159,-0.542396 -1.309687,-0.542396 -0.511528,0 -0.948091,0.180799 -1.309688,0.542396 -0.361597,0.361597 -0.542395,0.79816 -0.542395,1.309687 0,0.511528 0.180798,0.948091 0.542395,1.309688 0.361597,0.361597 0.79816,0.542396 1.309688,0.542396 z"
       id="path883"
       style="stroke-width:0.00661458"
       sodipodi:nodetypes="ccccccccccssssssssssccccsssssssssssssss" />
    <path
       d="m 70.044562,30.300133 v -0.529166 h 1.5875 v 0.529166 z m 0.79375,5.027084 q -0.48948,0 -0.922735,-0.188516 -0.433255,-0.188516 -0.75737,-0.51263 -0.324114,-0.324115 -0.51263,-0.75737 -0.188515,-0.433255 -0.188515,-0.922734 0,-0.489479 0.188515,-0.922735 0.188516,-0.433255 0.51263,-0.757369 0.324115,-0.324115 0.75737,-0.512631 0.433255,-0.188515 0.922735,-0.188515 0.410104,0 0.787135,0.132291 0.377031,0.132292 0.70776,0.383646 l 0.370417,-0.370416 0.370417,0.370416 -0.370417,0.370417 q 0.251354,0.330729 0.383646,0.70776 0.132292,0.377032 0.132292,0.787136 0,0.489479 -0.188516,0.922734 -0.188516,0.433255 -0.51263,0.75737 -0.324115,0.324114 -0.75737,0.51263 -0.433255,0.188516 -0.922734,0.188516 z m 0,-0.529167 q 0.767291,0 1.309687,-0.542396 0.542396,-0.542396 0.542396,-1.309687 0,-0.767292 -0.542396,-1.309688 -0.542396,-0.542396 -1.309687,-0.542396 -0.767292,0 -1.309688,0.542396 -0.542396,0.542396 -0.542396,1.309688 0,0.767291 0.542396,1.309687 0.542396,0.542396 1.309688,0.542396 z m 0,-1.852083 z m -0.79375,1.058333 h 0.529166 v -2.116667 h -0.529166 z m 1.058333,0 h 0.529167 v -2.116667 h -0.529167 z"
       id="path892"
       style="stroke-width:0.00661458" />
    <path
       d="M 71.012189,4.7029124 V 4.1737448 h 1.5875 v 0.5291676 z m 0.79375,5.027083 q -0.489479,0 -0.922735,-0.188515 -0.433255,-0.188516 -0.757369,-0.512631 -0.324115,-0.324114 -0.512631,-0.757369 -0.188515,-0.433256 -0.188515,-0.922735 0,-0.489479 0.188515,-0.922734 0.188516,-0.433255 0.512631,-0.75737 0.324114,-0.324114 0.757369,-0.51263 0.433256,-0.188516 0.922735,-0.188516 0.410104,0 0.787135,0.132292 0.377032,0.132292 0.707761,0.383646 l 0.370416,-0.370417 0.370417,0.370417 -0.370417,0.370416 q 0.251355,0.33073 0.383646,0.707761 0.132292,0.377031 0.132292,0.787135 0,0.489479 -0.188516,0.922735 -0.188515,0.433255 -0.51263,0.757369 -0.324115,0.324115 -0.75737,0.512631 -0.433255,0.188515 -0.922734,0.188515 z m 0,-0.529166 q 0.767292,0 1.309687,-0.542396 0.542396,-0.542396 0.542396,-1.309688 0,-0.767291 -0.542396,-1.309687 -0.542395,-0.542396 -1.309687,-0.542396 -0.767292,0 -1.309688,0.542396 -0.542395,0.542396 -0.542395,1.309687 0,0.767292 0.542395,1.309688 0.542396,0.542396 1.309688,0.542396 z m 0,-1.852084 z m -0.529167,1.058334 1.5875,-1.058334 -1.5875,-1.058333 z"
       id="path901"
       style="stroke-width:0.00661458" />
    <path
       id="use2687"
       d="m 53.562622,19.013836 v 0.529166 h 1.5875 v -0.529166 z m 2.476334,0.572057 -0.330729,0.454236 c -0.107527,-0.0649 -0.220475,-0.1233 -0.339514,-0.174666 -0.32191,-0.138906 -0.665972,-0.208256 -1.031978,-0.208256 -0.366006,0 -0.71007,0.06935 -1.031978,0.208256 -0.321911,0.138907 -0.601618,0.327215 -0.839743,0.56534 -0.238125,0.238125 -0.42695,0.518351 -0.565856,0.840259 -0.138906,0.32191 -0.208256,0.665972 -0.208256,1.031978 0,0.366008 0.06935,0.709551 0.208256,1.031462 0.138906,0.321911 0.327731,0.602133 0.565856,0.840258 0.238125,0.238125 0.517832,0.426435 0.839743,0.565341 0.321908,0.138906 0.665972,0.208772 1.031978,0.208772 0.366006,0 0.710068,-0.06987 1.031978,-0.208772 0.321911,-0.138906 0.601618,-0.327216 0.839743,-0.565341 0.238125,-0.238125 0.42695,-0.518347 0.565856,-0.840258 0.138906,-0.321911 0.208256,-0.665454 0.208256,-1.031462 0,-0.366006 -0.06935,-0.710068 -0.208256,-1.031978 -0.138906,-0.321908 -0.327731,-0.602134 -0.565856,-0.840259 -0.02502,-0.02502 -0.05106,-0.04894 -0.077,-0.07286 l 0.33538,-0.460436 z m -1.702221,0.60048 c 0.590902,0 1.091613,0.204846 1.501717,0.61495 0.410104,0.410104 0.61495,0.910815 0.61495,1.501717 0,0.590904 -0.204846,1.091096 -0.61495,1.501201 -0.410104,0.410104 -0.910815,0.615465 -1.501717,0.615465 -0.590905,0 -1.091613,-0.205361 -1.501717,-0.615465 -0.410104,-0.410105 -0.61495,-0.910297 -0.61495,-1.501201 0,-0.590902 0.204846,-1.091613 0.61495,-1.501717 0.410104,-0.410104 0.910812,-0.61495 1.501717,-0.61495 z m -1.049273,3.186272 h 2.116667 v -2.116666 h -2.116667 z m 1.049235,-1.108135 z" />
    <path
       id="use2689"
       d="m 53.562622,11.077386 v 0.529166 h 1.5875 v -0.529166 z m 2.476334,0.572057 -0.330729,0.454236 c -0.107527,-0.0649 -0.220475,-0.1233 -0.339514,-0.174666 -0.32191,-0.138906 -0.665972,-0.208256 -1.031978,-0.208256 -0.366006,0 -0.71007,0.06935 -1.031978,0.208256 -0.321911,0.138907 -0.601618,0.327215 -0.839743,0.56534 -0.238125,0.238125 -0.42695,0.518351 -0.565856,0.840259 -0.138906,0.32191 -0.208256,0.665972 -0.208256,1.031978 0,0.366008 0.06935,0.709551 0.208256,1.031462 0.138906,0.321911 0.327731,0.602133 0.565856,0.840258 0.238125,0.238125 0.517832,0.426435 0.839743,0.565341 0.321908,0.138906 0.665972,0.208772 1.031978,0.208772 0.366006,0 0.710068,-0.06987 1.031978,-0.208772 0.321911,-0.138906 0.601618,-0.327216 0.839743,-0.565341 0.238125,-0.238125 0.42695,-0.518347 0.565856,-0.840258 0.138906,-0.321911 0.208256,-0.665454 0.208256,-1.031462 0,-0.366006 -0.06935,-0.710068 -0.208256,-1.031978 -0.138906,-0.321908 -0.327731,-0.602134 -0.565856,-0.840259 -0.02502,-0.02502 -0.05106,-0.04894 -0.077,-0.07286 l 0.33538,-0.460436 z m -1.702221,0.60048 c 0.590902,0 1.091613,0.204846 1.501717,0.61495 0.410104,0.410104 0.61495,0.910815 0.61495,1.501717 0,0.590904 -0.204846,1.091096 -0.61495,1.501201 -0.410104,0.410104 -0.910815,0.615465 -1.501717,0.615465 -0.590905,0 -1.091613,-0.205361 -1.501717,-0.615465 -0.410104,-0.410105 -0.61495,-0.910297 -0.61495,-1.501201 0,-0.590902 0.204846,-1.091613 0.61495,-1.501717 0.410104,-0.410104 0.910812,-0.61495 1.501717,-0.61495 z m -0.661497,3.326471 1.852083,-1.190625 -1.852083,-1.190625 z m 0.661459,-1.190625 z" />
    <path
       id="use2691"
       d="m 53.562622,3.445181 v 0.529166 h 1.5875 V 3.445181 Z m 2.476334,0.572057 -0.330729,0.454236 C 55.6007,4.406574 55.487752,4.348174 55.368713,4.296808 55.046803,4.157902 54.702741,4.088552 54.336735,4.088552 c -0.366006,0 -0.71007,0.06935 -1.031978,0.208256 -0.321911,0.138907 -0.601618,0.327215 -0.839743,0.56534 -0.238125,0.238125 -0.42695,0.518351 -0.565856,0.840259 -0.138906,0.32191 -0.208256,0.665972 -0.208256,1.031978 0,0.366008 0.06935,0.709551 0.208256,1.031462 0.138906,0.321911 0.327731,0.602133 0.565856,0.840258 0.238125,0.238125 0.517832,0.426435 0.839743,0.565341 0.321908,0.138906 0.665972,0.208772 1.031978,0.208772 0.366006,0 0.710068,-0.06987 1.031978,-0.208772 0.321911,-0.138906 0.601618,-0.327216 0.839743,-0.565341 0.238125,-0.238125 0.42695,-0.518347 0.565856,-0.840258 0.138906,-0.321911 0.208256,-0.665454 0.208256,-1.031462 0,-0.366006 -0.06935,-0.710068 -0.208256,-1.031978 -0.138906,-0.321908 -0.327731,-0.602134 -0.565856,-0.840259 -0.02502,-0.02502 -0.05106,-0.04894 -0.077,-0.07286 l 0.33538,-0.460436 z m -1.702221,0.60048 c 0.590902,0 1.091613,0.204846 1.501717,0.61495 0.410104,0.410104 0.61495,0.910815 0.61495,1.501717 0,0.590904 -0.204846,1.091096 -0.61495,1.501201 -0.410104,0.410104 -0.910815,0.615465 -1.501717,0.615465 -0.590905,0 -1.091613,-0.205361 -1.501717,-0.615465 -0.410104,-0.410105 -0.61495,-0.910297 -0.61495,-1.501201 0,-0.590902 0.204846,-1.091613 0.61495,-1.501717 0.410104,-0.410104 0.910812,-0.61495 1.501717,-0.61495 z m -0.79553,3.2512646 h 0.529167 v -2.116667 h -0.529167 z m 1.058333,0 h 0.529167 v -2.116667 h -0.529167 z m -0.264583,-1.058333 z" />
    <path
       id="use2701"
       d="m 54.070372,38.31784 h 0.529167 v -1.684912 h -0.529167 z m -0.50775,-3.252986 v 0.529166 h 1.5875 v -0.529166 z m 2.476334,0.572057 -0.330729,0.454236 c -0.107527,-0.0649 -0.220475,-0.1233 -0.339514,-0.174666 -0.32191,-0.138906 -0.665972,-0.208256 -1.031978,-0.208256 -0.366006,0 -0.71007,0.06935 -1.031978,0.208256 -0.321911,0.138907 -0.601618,0.327215 -0.839743,0.56534 -0.238125,0.238125 -0.42695,0.518351 -0.565856,0.840259 -0.138906,0.32191 -0.208256,0.665972 -0.208256,1.031978 0,0.366008 0.06935,0.709551 0.208256,1.031462 0.138906,0.321911 0.327731,0.602133 0.565856,0.840258 0.238125,0.238125 0.517832,0.426435 0.839743,0.565341 0.321908,0.138906 0.665972,0.208772 1.031978,0.208772 0.366006,0 0.710068,-0.06987 1.031978,-0.208772 0.321911,-0.138906 0.601618,-0.327216 0.839743,-0.565341 0.238125,-0.238125 0.42695,-0.518347 0.565856,-0.840258 0.138906,-0.321911 0.208256,-0.665454 0.208256,-1.031462 0,-0.366006 -0.06935,-0.710068 -0.208256,-1.031978 -0.138906,-0.321908 -0.327731,-0.602134 -0.565856,-0.840259 -0.02502,-0.02502 -0.05106,-0.04894 -0.077,-0.07286 l 0.33538,-0.460436 z m -1.702221,0.60048 c 0.590902,0 1.091613,0.204846 1.501717,0.61495 0.410104,0.410104 0.61495,0.910815 0.61495,1.501717 0,0.590904 -0.204846,1.091096 -0.61495,1.501201 -0.410104,0.410104 -0.910815,0.615465 -1.501717,0.615465 -0.590905,0 -1.091613,-0.205361 -1.501717,-0.615465 -0.410104,-0.410105 -0.61495,-0.910297 -0.61495,-1.501201 0,-0.590902 0.204846,-1.091613 0.61495,-1.501717 0.410104,-0.410104 0.910812,-0.61495 1.501717,-0.61495 z" />
    <use
       x="0"
       y="0"
       xlink:href="#g1717"
       id="use8163"
       transform="translate(0,49.261233)"
       width="100%"
       height="100%" />
    <use
       x="0"
       y="0"
       xlink:href="#use8163"
       id="use8745"
       transform="translate(0,10.514141)"
       width="100%"
       height="100%" />
    <path
       id="path3802-8-6"
       d="m 54.957088,-3.8750623 c -0.32069,-0.085929 -0.652564,-0.1089171 -0.996117,-0.069854 -0.343544,0.039047 -0.672519,0.1493524 -0.986914,0.3308637 -0.574305,0.3315846 -0.96412,0.810777 -1.169362,1.4378951 -0.205244,0.6271176 -0.178643,1.25143015 0.07989,1.87347935 l 0.515489,-0.2975497 C 52.211253,-1.0724986 52.199133,-1.5462068 52.363624,-2.021257 c 0.16449,-0.4750258 0.464795,-0.8382209 0.900763,-1.0899246 0.490457,-0.2831662 1.004976,-0.3528492 1.543871,-0.2084528 0.432698,0.1242235 0.965171,0.4256972 1.233268,0.952585 l -0.672761,0.4234855 1.485214,0.3933032 0.399039,-1.491626 -0.708617,0.384567 c 0,0 -0.411258,-0.5744026 -0.689258,-0.7799927 -0.277993,-0.2056028 -0.577352,-0.3517567 -0.898049,-0.4376872 z m 1.193389,3.32312255 c -0.07074,0.1582221 -0.158434,0.3037855 -0.263212,0.4369318 -0.104761,0.1331488 -0.222654,0.2513194 -0.35308,0.3545625 l 0.298036,0.5155317 c 0.199272,-0.1485907 0.374433,-0.3193957 0.525469,-0.5127957 0.151041,-0.1933964 0.269469,-0.4042373 0.355511,-0.6327702 z m -3.459607,0.4547053 -0.515996,0.2979117 c 0.141975,0.1974881 0.309662,0.3688589 0.502738,0.514494 0.193068,0.1456425 0.407428,0.2679751 0.643215,0.36658855 L 53.48234,0.51905155 c -0.158221,-0.0707411 -0.304167,-0.1585464 -0.437323,-0.2633156 -0.133154,-0.1047626 -0.250848,-0.2225349 -0.354098,-0.3529572 z m 2.340369,0.6271002 c -0.154631,0.061328 -0.315824,0.1043566 -0.483524,0.1285168 -0.167697,0.02416 -0.337609,0.02733 -0.509999,0.00948 L 53.896237,1.2359387 c 0.253509,0.0325 0.500316,0.03372 0.740334,0.00413 0.240023,-0.029571 0.47055,-0.094252 0.692243,-0.1942957 z M 54.598401,-3.0928735 c -0.08926,-6e-7 -0.165649,0.03161 -0.229207,0.09516 -0.06356,0.06357 -0.09566,0.1399488 -0.09566,0.2292091 -2e-6,0.08926 0.03209,0.1656548 0.09566,0.2292072 0.06356,0.06357 0.139952,0.09566 0.229207,0.09566 0.08926,6e-7 0.165655,-0.03209 0.229209,-0.09566 0.06356,-0.063549 0.09516,-0.139949 0.09516,-0.2292056 2e-6,-0.08926 -0.03162,-0.1656419 -0.09516,-0.2292101 -0.06356,-0.06357 -0.139948,-0.095159 -0.229209,-0.095161 z m -0.24352,0.7300929 c -0.03787,-1.6e-6 -0.07917,0.0062 -0.123802,0.018309 -0.04463,0.012161 -0.11439,0.03854 -0.209055,0.0791 l -0.64068,0.2760749 v 0.762722 c 0.12358,0.1111234 0.227211,0.079591 0.324377,2e-7 l -2e-6,-0.5518294 0.292149,-0.1138811 -0.259596,1.31447265 -0.779198,-0.1621906 c -0.130742,0.0748 -0.128707,0.1904106 -0.06477,0.3247801 l 1.119653,0.2269681 0.162186,-0.7139368 0.340935,0.3243801 v 0.974016 c 0.09835,0.07437 0.220254,0.066554 0.324777,-4e-7 l -3e-6,-1.217063 -0.340853,-0.32485815 0.09741,-0.486568 c 0.105492,0.1217135 0.235877,0.2196122 0.3914,0.2939861 0.155521,0.07439 0.322772,0.1117266 0.501284,0.1117268 0.121165,-0.1107591 0.115061,-0.2191127 0,-0.3248582 -0.154167,-1e-7 -0.291591,-0.03637 -0.411953,-0.1094009 -0.120367,-0.07304 -0.215676,-0.1665548 -0.285995,-0.2801629 l -0.162591,-0.259599 c -0.02975,-0.048669 -0.0688,-0.087711 -0.117481,-0.1174845 -0.04868,-0.02978 -0.101392,-0.04471 -0.158193,-0.044707 z"
       sodipodi:nodetypes="cccsccsscccccccccccccsccccsccscccscccccscscscscssscccccccccccccccccccccsccsss"
       inkscape:export-filename="/home/rudson/Documents/Projects/Flutter/trainers_stopwatch/assets/svgs/StopwatchIcons/path3802-8-6.png"
       inkscape:export-xdpi="124.215"
       inkscape:export-ydpi="124.215" />
    <path
       id="path9866-3"
       d="m 54.634279,46.255266 c -0.08926,-2e-6 -0.165646,0.0316 -0.229206,0.09516 -0.06356,0.06357 -0.09566,0.139949 -0.09566,0.22921 -2e-6,0.08926 0.03209,0.165654 0.09566,0.229206 0.06356,0.06357 0.139951,0.09566 0.229205,0.09566 0.08926,2e-6 0.165655,-0.03209 0.229208,-0.09566 0.06356,-0.06355 0.09516,-0.13995 0.09517,-0.229206 2e-6,-0.08926 -0.03162,-0.165642 -0.09516,-0.22921 -0.06356,-0.06357 -0.139947,-0.09516 -0.22921,-0.09516 z m -0.24352,0.730093 c -0.03787,-1e-6 -0.07917,0.0062 -0.123801,0.01831 -0.04463,0.01216 -0.114389,0.03854 -0.209056,0.0791 l -0.640681,0.276074 v 0.762722 c 0.12358,0.111122 0.227212,0.07959 0.324381,-4e-6 l -3e-6,-0.55183 0.292148,-0.113881 -0.259596,1.314472 -0.779199,-0.162187 c -0.130741,0.0748 -0.128707,0.19041 -0.06476,0.324779 l 1.11965,0.22697 0.162186,-0.713937 0.340935,0.324381 1e-6,0.974016 c 0.09835,0.07437 0.220249,0.06657 0.324778,-2e-6 l -2e-6,-1.217063 -0.340856,-0.324859 0.09741,-0.486567 c 0.105493,0.121711 0.235877,0.219612 0.391401,0.293986 0.155521,0.07439 0.322771,0.111726 0.501282,0.111729 0.121165,-0.11076 0.115061,-0.219113 -1e-6,-0.324859 -0.154164,-10e-7 -0.29159,-0.03637 -0.411954,-0.109401 -0.120366,-0.07304 -0.215675,-0.166554 -0.285993,-0.280163 L 54.66644,47.147544 c -0.02975,-0.04867 -0.0688,-0.08771 -0.117483,-0.117479 -0.04868,-0.02979 -0.101394,-0.04471 -0.158204,-0.04467 z m -0.828133,-2.263358 -1e-6,0.529166 h 1.5875 l 10e-7,-0.529166 z m 2.476334,0.572055 -0.330729,0.454236 c -0.107526,-0.0649 -0.220477,-0.123295 -0.339514,-0.174664 -0.32191,-0.13891 -0.665973,-0.208253 -1.03198,-0.208252 -0.366006,0 -0.71007,0.06935 -1.031978,0.208256 -0.321911,0.138907 -0.601617,0.327215 -0.839743,0.56534 -0.238125,0.238125 -0.42695,0.518351 -0.565856,0.840259 -0.138909,0.321909 -0.208252,0.665973 -0.208252,1.031979 10e-7,0.366008 0.06935,0.709551 0.208256,1.031462 0.138906,0.321911 0.327731,0.602133 0.565856,0.840258 0.238125,0.238125 0.517832,0.426435 0.839744,0.565341 0.321906,0.138908 0.665971,0.20877 1.031978,0.208769 0.366006,-1e-6 0.710067,-0.06987 1.031978,-0.208772 0.321911,-0.138906 0.601618,-0.327216 0.839743,-0.565341 0.238125,-0.238125 0.426949,-0.518347 0.565856,-0.840258 0.13891,-0.32191 0.208259,-0.665454 0.208258,-1.031461 0,-0.366007 -0.06935,-0.710068 -0.208255,-1.031978 -0.138906,-0.321909 -0.327732,-0.602135 -0.565856,-0.840259 -0.02502,-0.02502 -0.05106,-0.04894 -0.077,-0.07286 l 0.33538,-0.460437 z m -1.702221,0.60048 c 0.590902,10e-7 1.091611,0.20485 1.501717,0.61495 0.410104,0.410104 0.61495,0.910815 0.614949,1.501717 1e-6,0.590904 -0.204846,1.091096 -0.614949,1.501201 -0.410104,0.410104 -0.910815,0.615465 -1.501718,0.615465 -0.590904,0 -1.091613,-0.205358 -1.501716,-0.615465 -0.410104,-0.410105 -0.61495,-0.910297 -0.61495,-1.501201 0,-0.590902 0.204841,-1.091614 0.61495,-1.501717 0.410104,-0.410104 0.910812,-0.61495 1.501717,-0.61495 z" />
    <path
       id="path9866-9-8"
       d="m 54.634276,54.371975 c -0.08926,-2e-6 -0.165646,0.0316 -0.229206,0.09516 -0.06356,0.06357 -0.09566,0.139949 -0.09566,0.229209 -2e-6,0.08926 0.03209,0.165655 0.09566,0.229207 0.06356,0.06357 0.139951,0.09566 0.229205,0.09566 0.08926,3e-6 0.165655,-0.03209 0.229208,-0.09566 0.06356,-0.06355 0.09516,-0.139949 0.09517,-0.229205 2e-6,-0.08926 -0.03162,-0.165642 -0.09516,-0.22921 -0.06356,-0.06357 -0.139947,-0.09516 -0.22921,-0.09516 z m -0.24352,0.730093 c -0.03787,-1e-6 -0.07917,0.0062 -0.123802,0.01831 -0.04463,0.01216 -0.114388,0.03854 -0.209055,0.0791 l -0.640681,0.276074 v 0.762722 c 0.12358,0.111121 0.227212,0.07959 0.324381,-4e-6 l -3e-6,-0.55183 0.292148,-0.113881 -0.259596,1.314472 -0.779199,-0.162188 c -0.130741,0.0748 -0.128707,0.190411 -0.06476,0.324779 l 1.119649,0.226971 0.162187,-0.713937 0.340934,0.32438 2e-6,0.974017 c 0.09835,0.07437 0.220249,0.06657 0.324777,-2e-6 l -2e-6,-1.217063 -0.340855,-0.324859 0.09741,-0.486567 c 0.105492,0.12171 0.235876,0.219612 0.391401,0.293986 0.155521,0.07439 0.322771,0.111726 0.501282,0.111728 0.121165,-0.110759 0.115061,-0.219113 -1e-6,-0.324858 -0.154165,-10e-7 -0.29159,-0.03637 -0.411954,-0.109401 -0.120366,-0.07304 -0.215675,-0.166554 -0.285993,-0.280163 l -0.16259,-0.259601 c -0.02975,-0.04867 -0.0688,-0.08771 -0.117482,-0.11748 -0.04868,-0.02978 -0.101394,-0.04471 -0.158204,-0.04467 z m 1.12063,-1.325674 C 55.223865,53.610392 54.98318,53.516489 54.6396,53.47764 c -0.336672,-0.03807 -0.730466,-0.01284 -1.113449,0.09812 -0.382981,0.110956 -0.954795,0.379155 -1.397842,1.004315 -0.381532,0.538362 -0.549432,1.238773 -0.460697,1.906542 l 0.516925,-0.09949 c -0.04535,-0.506055 0.05801,-1.067761 0.352767,-1.483879 0.290568,-0.410215 0.655099,-0.6968 1.141357,-0.82709 0.547034,-0.146577 1.195342,-0.08921 1.678502,0.189747 0.385803,0.231982 0.84381,0.655088 0.966403,1.23341 l -0.670204,0.1281 1.056319,0.790957 0.744819,-1.115283 -0.6136,0.08278 c -0.115275,-0.392223 -0.311256,-0.726109 -0.526574,-0.996647 -0.21531,-0.270547 -0.515427,-0.446758 -0.802957,-0.612763 z m 0.408245,3.68946 c -0.109281,0.134522 -0.270537,0.281987 -0.407871,0.380017 -0.137894,0.09843 -0.280636,0.170615 -0.433339,0.236583 l 0.129004,0.506306 c 0.230941,-0.09195 0.431066,-0.193094 0.629516,-0.337429 0.200708,-0.145976 0.38457,-0.316783 0.531987,-0.508429 z M 51.79773,57.000077 c 0.08602,0.227503 0.186986,0.424912 0.32293,0.624931 0.132491,0.194942 0.306884,0.376552 0.49678,0.536229 l 0.305888,-0.433659 c -0.134522,-0.109281 -0.286306,-0.286749 -0.387806,-0.422411 -0.101505,-0.135657 -0.169212,-0.292595 -0.235188,-0.445296 0,0 -0.378671,0.106998 -0.502604,0.140206 z m 2.71055,1.209819 c -0.194925,0.01982 -0.416502,0.0082 -0.587,-0.01622 -0.167723,-0.02399 -0.374869,-0.08596 -0.536966,-0.162132 l -0.235827,0.462242 c 0.225638,0.10332 0.456071,0.185066 0.695578,0.218577 0.239498,0.03356 0.498738,0.06141 0.738768,0.02217 z" />
    <path
       id="path11970"
       style="stroke-width:0.00661458"
       d="m 54.093338,66.121685 -0.79375,2.235523 h 0.489376 l 0.152446,-0.463021 h 0.820105 l 0.151928,0.463021 h 0.502812 l -0.79375,-2.235523 z m 0.264584,0.515731 0.28422,0.873332 h -0.575159 z m -0.7953,-2.574464 v 0.529166 h 1.5875 v -0.529166 z m 2.476334,0.572057 -0.330729,0.454236 c -0.107527,-0.0649 -0.220475,-0.1233 -0.339514,-0.174666 -0.32191,-0.138906 -0.665972,-0.208256 -1.031978,-0.208256 -0.366006,0 -0.71007,0.06935 -1.031978,0.208256 -0.321911,0.138907 -0.601618,0.327215 -0.839743,0.56534 -0.238125,0.238125 -0.42695,0.518351 -0.565856,0.840259 -0.138906,0.32191 -0.208256,0.665972 -0.208256,1.031978 0,0.366008 0.06935,0.709551 0.208256,1.031462 0.138906,0.321911 0.327731,0.602133 0.565856,0.840258 0.238125,0.238125 0.517832,0.426435 0.839743,0.565341 0.321908,0.138906 0.665972,0.208772 1.031978,0.208772 0.366006,0 0.710068,-0.06987 1.031978,-0.208772 0.321911,-0.138906 0.601618,-0.327216 0.839743,-0.565341 0.238125,-0.238125 0.42695,-0.518347 0.565856,-0.840258 0.138906,-0.321911 0.208256,-0.665454 0.208256,-1.031462 0,-0.366006 -0.06935,-0.710068 -0.208256,-1.031978 -0.138906,-0.321908 -0.327731,-0.602134 -0.565856,-0.840259 -0.02502,-0.02502 -0.05106,-0.04894 -0.077,-0.07286 l 0.33538,-0.460436 z m -1.702221,0.60048 c 0.590902,0 1.091613,0.204846 1.501717,0.61495 0.410104,0.410104 0.61495,0.910815 0.61495,1.501717 0,0.590904 -0.204846,1.091096 -0.61495,1.501201 -0.410104,0.410104 -0.910815,0.615465 -1.501717,0.615465 -0.590905,0 -1.091613,-0.205361 -1.501717,-0.615465 -0.410104,-0.410105 -0.61495,-0.910297 -0.61495,-1.501201 0,-0.590902 0.204846,-1.091613 0.61495,-1.501717 0.410104,-0.410104 0.910812,-0.61495 1.501717,-0.61495 z" />
    <path
       id="path11979"
       style="stroke-width:0.00661458"
       d="m 53.696463,79.155586 h 1.322916 v -0.396875 h -0.740833 l 0.740833,-0.833438 v -0.357187 h -1.322916 v 0.396875 h 0.754062 l -0.754062,0.846666 z m -0.139528,-4.056263 v 0.529166 h 1.5875 v -0.529166 z m 2.476334,0.572057 -0.330729,0.454236 c -0.107527,-0.0649 -0.220475,-0.1233 -0.339514,-0.174666 -0.32191,-0.138906 -0.665972,-0.208256 -1.031978,-0.208256 -0.366006,0 -0.71007,0.06935 -1.031978,0.208256 -0.321911,0.138907 -0.601618,0.327215 -0.839743,0.56534 -0.238125,0.238125 -0.42695,0.518351 -0.565856,0.840259 -0.138906,0.32191 -0.208256,0.665972 -0.208256,1.031978 0,0.366008 0.06935,0.709551 0.208256,1.031462 0.138906,0.321911 0.327731,0.602133 0.565856,0.840258 0.238125,0.238125 0.517832,0.426435 0.839743,0.565341 0.321908,0.138906 0.665972,0.208772 1.031978,0.208772 0.366006,0 0.710068,-0.06987 1.031978,-0.208772 0.321911,-0.138906 0.601618,-0.327216 0.839743,-0.565341 0.238125,-0.238125 0.42695,-0.518347 0.565856,-0.840258 0.138906,-0.321911 0.208256,-0.665454 0.208256,-1.031462 0,-0.366006 -0.06935,-0.710068 -0.208256,-1.031978 -0.138906,-0.321908 -0.327731,-0.602134 -0.565856,-0.840259 -0.02502,-0.02502 -0.05106,-0.04894 -0.077,-0.07286 l 0.33538,-0.460436 z m -1.702221,0.60048 c 0.590902,0 1.091613,0.204846 1.501717,0.61495 0.410104,0.410104 0.61495,0.910815 0.61495,1.501717 0,0.590904 -0.204846,1.091096 -0.61495,1.501201 -0.410104,0.410104 -0.910815,0.615465 -1.501717,0.615465 -0.590905,0 -1.091613,-0.205361 -1.501717,-0.615465 -0.410104,-0.410105 -0.61495,-0.910297 -0.61495,-1.501201 0,-0.590902 0.204846,-1.091613 0.61495,-1.501717 0.410104,-0.410104 0.910812,-0.61495 1.501717,-0.61495 z" />
    <path
       id="path1197"
       style="display:inline;stroke-width:0.00661458"
       d="m 53.5649,85.976456 v 0.529166 h 1.5875 v -0.529166 z m 2.476122,0.572265 -0.330729,0.454237 c -0.107527,-0.0649 -0.220475,-0.123302 -0.339513,-0.174668 -0.321911,-0.138906 -0.665973,-0.208256 -1.031979,-0.208256 -0.366006,0 -0.71007,0.06935 -1.031978,0.208256 -0.32191,0.138906 -0.601617,0.327216 -0.839742,0.565341 -0.238125,0.238125 -0.42695,0.51835 -0.565857,0.840258 -0.138906,0.321911 -0.208256,0.665972 -0.208256,1.031978 0,0.366009 0.06935,0.709552 0.208256,1.031463 0.138907,0.32191 0.327732,0.602133 0.565857,0.840258 0.238125,0.238125 0.517832,0.426434 0.839742,0.565341 0.321908,0.138906 0.665972,0.208772 1.031978,0.208772 0.366006,0 0.710068,-0.06987 1.031979,-0.208772 0.32191,-0.138907 0.601617,-0.327216 0.839742,-0.565341 0.238125,-0.238125 0.42695,-0.518348 0.565857,-0.840258 0.138906,-0.321911 0.208256,-0.665454 0.208256,-1.031463 0,-0.366006 -0.06935,-0.710067 -0.208256,-1.031978 -0.138907,-0.321908 -0.327732,-0.602133 -0.565857,-0.840258 -0.02502,-0.02502 -0.05106,-0.04894 -0.077,-0.07286 l 0.335381,-0.460436 z m -1.702221,0.60048 c 0.590902,0 1.091613,0.204848 1.501717,0.61495 0.410104,0.410104 0.61495,0.910814 0.61495,1.501716 0,0.590905 -0.204846,1.091097 -0.61495,1.501201 -0.410104,0.410104 -0.910815,0.615466 -1.501717,0.615466 -0.590904,0 -1.091612,-0.205362 -1.501716,-0.615466 -0.410105,-0.410104 -0.61495,-0.910296 -0.61495,-1.501201 0,-0.590902 0.204845,-1.091612 0.61495,-1.501716 0.410104,-0.410105 0.910812,-0.61495 1.501716,-0.61495 z m -0.179226,3.621552 q -0.536321,-0.06649 -0.888698,-0.467621 -0.352376,-0.401135 -0.352376,-0.941894 0,-0.292535 0.115246,-0.560696 0.115247,-0.268163 0.327998,-0.467622 l 0.252647,0.252649 q -0.168432,0.150703 -0.254864,0.350161 -0.08643,0.19946 -0.08643,0.425508 0,0.390057 0.248214,0.689244 0.248213,0.299187 0.638266,0.365678 z m 0.354593,0 V 90.41616 q 0.385618,-0.07093 0.63605,-0.367894 0.250432,-0.296971 0.250432,-0.687028 0,-0.443238 -0.310271,-0.753507 -0.310268,-0.310271 -0.753507,-0.310271 h -0.0133 l 0.195025,0.195028 -0.248214,0.248215 -0.620538,-0.620539 0.620538,-0.620539 0.248214,0.248216 -0.195025,0.195026 h 0.0133 q 0.593942,0 1.006154,0.412215 0.412214,0.412217 0.412214,1.006156 0,0.536327 -0.352375,0.937462 -0.352377,0.401131 -0.888697,0.472053 z" />
  </g>
</svg>
