<?xml version="1.0" encoding="UTF-8" standalone="no"?>
<!-- Created with Inkscape (http://www.inkscape.org/) -->

<svg
   width="190.06793mm"
   height="190.06749mm"
   viewBox="0 0 190.06793 190.06749"
   version="1.1"
   id="svg5"
   inkscape:version="1.1.2 (0a00cf5339, 2022-02-04)"
   sodipodi:docname="turn.svg"
   xmlns:inkscape="http://www.inkscape.org/namespaces/inkscape"
   xmlns:sodipodi="http://sodipodi.sourceforge.net/DTD/sodipodi-0.dtd"
   xmlns="http://www.w3.org/2000/svg"
   xmlns:svg="http://www.w3.org/2000/svg">
  <sodipodi:namedview
     id="namedview7"
     pagecolor="#ffffff"
     bordercolor="#666666"
     borderopacity="1.0"
     inkscape:pageshadow="2"
     inkscape:pageopacity="0.0"
     inkscape:pagecheckerboard="0"
     inkscape:document-units="mm"
     showgrid="false"
     fit-margin-top="0"
     fit-margin-left="0"
     fit-margin-right="0"
     fit-margin-bottom="0"
     inkscape:zoom="0.16013082"
     inkscape:cx="877.4076"
     inkscape:cy="24.979576"
     inkscape:window-width="1920"
     inkscape:window-height="1043"
     inkscape:window-x="0"
     inkscape:window-y="0"
     inkscape:window-maximized="1"
     inkscape:current-layer="layer1" />
  <defs
     id="defs2" />
  <g
     inkscape:label="Layer 1"
     inkscape:groupmode="layer"
     id="layer1"
     transform="translate(-10.066045,-11.37316)">
    <g
       id="g1475"
       transform="matrix(0.72238118,0,0,0.72238118,20.298811,9.371308)">
      <path
         d="m 121.0623,204.53974 v -39.07898 l -13.67753,-13.0264 -6.51333,28.65799 -44.940711,-9.11851 c -2.56564,-5.39289 -2.642105,-10.02413 2.605183,-13.02641 l 31.263183,6.51333 10.421235,-52.75674 -11.723697,4.55926 v 22.14467 c -3.899662,3.19454 -8.066536,4.45989 -13.026412,0 V 108.79613 L 101.19712,97.723786 c 3.79933,-1.627989 6.59456,-2.686344 8.38568,-3.175068 1.79127,-0.489051 3.44675,-0.733576 4.96642,-0.733576 2.27965,0 4.39644,0.597362 6.35036,1.792086 1.95391,1.194737 3.52789,2.768729 4.72195,4.721982 l 6.51309,10.42123 c 2.82239,4.55917 6.64889,8.30418 11.4795,11.23505 4.83061,2.93103 10.33966,4.39654 16.52715,4.39654 4.61782,4.244 4.86298,8.58085 0,13.02616 -7.16444,0 -13.86756,-1.49259 -20.10937,-4.47776 -6.2418,-2.98519 -11.47949,-6.92016 -15.71307,-11.80493 l -3.9079,19.53948 13.67776,13.02616 v 48.84885 c -4.19508,2.67129 -9.0792,2.985 -13.02639,-2.5e-4 z m 3.25653,-113.980406 c -3.58223,0 -6.64881,-1.275472 -9.19974,-3.826416 -2.55095,-2.551111 -3.82642,-5.617776 -3.82642,-9.199993 0,-3.582225 1.27547,-6.64881 3.82642,-9.199754 2.55093,-2.550943 5.61751,-3.826415 9.19974,-3.826415 3.58239,0 6.64905,1.275472 9.19999,3.826415 2.55095,2.550944 3.82642,5.617529 3.82642,9.199754 0,3.582217 -1.27547,6.648882 -3.82642,9.199993 -2.55094,2.550944 -5.6176,3.826416 -9.19999,3.826416 z"
         id="path824"
         sodipodi:nodetypes="ccccccccccccccsscccccscccccscssssscs" />
      <path
         d="m 117.39121,265.88364 c -36.725969,0 -67.833551,-12.7446 -93.322746,-38.23379 -25.4891947,-25.48878 -38.233792,-56.59636 -38.233792,-93.32274 0,-36.725975 12.7445973,-67.83356 38.233792,-93.322755 25.489195,-25.48878 56.596777,-38.23317 93.322746,-38.23317 18.91138,0 37.00048,3.9054623 54.2673,11.716387 17.26641,7.811338 32.0664,18.979952 44.39995,33.505843 V 27.276309 h 32.88929 V 117.88277 H 164.75602 V 84.993479 h 38.1466 c -8.77014,-15.347963 -20.76083,-27.407224 -35.97206,-36.177785 -15.21123,-8.77056 -31.72434,-13.15584 -49.53935,-13.15584 -27.407637,0 -50.704088,9.592632 -69.889352,28.777896 -19.185263,19.185264 -28.777895,42.48172 -28.777895,69.88936 0,27.40763 9.592632,50.70408 28.777895,69.88935 19.185264,19.18526 42.481715,28.77789 69.889352,28.77789 21.10371,0 40.15204,-6.02963 57.14497,-18.08889 16.99251,-12.05926 28.91483,-27.95562 35.76696,-47.68907 h 34.53322 c -7.67419,29.0522 -23.29646,52.75969 -46.86679,71.12247 -23.57075,18.36319 -50.4302,27.54478 -80.57836,27.54478 z"
         id="path833"
         sodipodi:nodetypes="scscsccccccccssssssccccs" />
    </g>
  </g>
</svg>
